<?xml version="1.0" standalone="no"?>
<!DOCTYPE svg PUBLIC "-//W3C//DTD SVG 20010904//EN"
 "http://www.w3.org/TR/2001/REC-SVG-20010904/DTD/svg10.dtd">
<svg version="1.0" xmlns="http://www.w3.org/2000/svg"
 width="272.000000pt" height="272.000000pt" viewBox="0 0 272.000000 272.000000"
 preserveAspectRatio="xMidYMid meet">
<metadata>
Created by potrace 1.11, written by Peter Selinger 2001-2013
</metadata>
<g transform="translate(0.000000,272.000000) scale(0.100000,-0.100000)"
fill="#000000" stroke="none">
<path d="M1605 2663 c-16 -3 -35 -12 -42 -21 -8 -11 -12 -12 -13 -4 0 6 -8 12
-17 11 -10 0 -13 -3 -6 -5 12 -5 -33 -61 -47 -57 -4 1 -15 -6 -24 -16 -15 -16
-15 -19 -1 -24 10 -4 15 -1 15 10 0 16 7 16 10 1 0 -4 7 -19 15 -34 12 -24 10
-63 -2 -50 -3 3 -12 -1 -20 -9 -8 -8 -24 -15 -35 -15 -21 0 -21 -1 -3 -20 14
-15 16 -23 8 -31 -6 -6 -9 -18 -6 -25 3 -8 -2 -17 -11 -20 -9 -3 -16 -13 -16
-20 0 -8 -7 -17 -15 -20 -8 -4 -12 -11 -8 -17 3 -5 -2 -16 -11 -22 -16 -12
-16 -14 0 -30 11 -11 25 -14 41 -10 21 5 23 3 17 -21 -6 -25 -5 -26 20 -22 14
3 26 2 26 -2 0 -9 -51 -65 -59 -65 -3 0 -6 -5 -6 -11 0 -6 -5 -18 -12 -25 -9
-11 -6 -14 14 -16 14 0 33 -8 41 -17 14 -14 15 -19 3 -38 -8 -12 -9 -23 -3
-27 5 -3 13 -16 17 -29 5 -19 3 -25 -14 -29 -41 -11 -13 -58 47 -80 37 -13 62
-8 62 13 0 8 4 14 8 14 14 0 7 -36 -10 -54 -9 -9 -33 -17 -52 -18 -20 -2 -36
-7 -36 -11 0 -5 -4 -5 -10 -2 -5 3 -10 1 -10 -4 0 -15 -27 -14 -33 2 -3 8 -9
6 -19 -7 -9 -11 -22 -20 -30 -22 -14 -2 -14 1 -2 25 12 23 12 26 -4 30 -25 5
-42 21 -42 41 0 10 -13 23 -30 30 -16 7 -33 24 -39 39 l-9 26 -1 -27 c-1 -20
-8 -29 -32 -37 -41 -14 -39 -14 -39 8 0 24 -41 56 -51 40 -4 -7 -8 -5 -12 4
-3 9 1 18 9 21 8 3 14 12 14 19 0 8 10 22 23 30 l22 16 -21 0 c-12 1 -24 7
-27 15 -7 18 48 30 74 16 18 -10 24 -3 20 23 0 4 3 7 7 7 13 0 8 46 -7 64 -11
13 -17 14 -28 4 -11 -9 -15 -7 -20 10 -7 27 -29 28 -45 2 -20 -32 -28 -23 -25
30 1 27 5 50 8 50 4 0 19 -7 35 -15 19 -10 30 -11 35 -4 10 16 52 0 45 -17 -3
-9 1 -14 14 -14 13 0 20 7 20 20 0 11 5 20 10 20 6 0 8 10 4 24 -5 20 0 25 26
34 27 10 30 14 21 31 -13 23 -1 34 26 24 16 -6 16 -5 4 10 -7 9 -17 14 -22 11
-5 -3 -17 0 -27 5 -15 8 -25 4 -51 -19 -57 -52 -86 -58 -57 -12 18 30 -3 21
-25 -10 -13 -18 -27 -34 -31 -36 -4 -2 -5 -11 -2 -20 5 -14 2 -13 -10 2 -15
19 -19 69 -7 91 3 6 6 19 8 30 1 11 -1 14 -3 8 -3 -7 -10 -13 -15 -13 -6 0 -8
4 -5 9 3 5 -1 12 -10 15 -26 10 -27 7 -11 -18 12 -17 13 -26 4 -35 -8 -8 -8
-11 2 -11 9 0 11 -9 6 -31 -8 -35 -14 -71 -18 -113 -3 -28 -33 -60 -48 -51 -4
3 -10 1 -14 -5 -3 -5 -1 -10 5 -10 6 0 8 -5 4 -11 -4 -7 -9 -8 -13 -1 -5 8
-33 5 -130 -17 -2 -1 2 -7 8 -15 8 -10 9 -16 1 -21 -16 -10 -12 -24 8 -19 10
3 22 -4 30 -16 11 -19 11 -22 -5 -26 -19 -5 -63 -65 -63 -85 0 -7 8 -5 19 5
12 11 21 14 25 7 9 -13 46 8 46 26 0 7 7 13 15 13 9 0 15 -10 15 -26 0 -14 -4
-23 -9 -19 -9 5 -53 -34 -93 -84 -22 -26 -23 -38 -2 -20 12 10 17 10 23 0 6
-10 12 -9 24 3 8 9 17 20 19 26 2 6 10 8 19 5 13 -5 15 -23 15 -98 l-1 -92
-90 -9 c-57 -5 -93 -13 -100 -22 -5 -8 -24 -17 -40 -20 -17 -2 -39 -15 -49
-27 l-19 -22 6 25 c3 14 9 46 12 73 7 45 17 58 30 37 3 -5 15 -10 26 -10 16 0
19 5 14 19 -4 13 1 27 14 40 26 26 26 38 0 46 -19 6 -19 8 -4 24 8 10 13 25 9
35 -4 9 -1 16 6 16 7 0 10 8 7 20 -3 11 -1 18 4 15 4 -3 15 8 24 24 13 26 13
30 1 25 -15 -6 -40 29 -29 40 3 3 -3 6 -15 6 -15 0 -22 -6 -22 -20 0 -11 -6
-20 -14 -20 -9 0 -13 11 -12 35 1 36 10 45 20 23 5 -10 7 -10 12 0 3 6 14 12
25 12 10 0 25 12 33 27 13 25 12 30 -7 58 -12 16 -21 31 -19 33 10 10 -3 34
-24 42 -14 6 -23 14 -20 19 3 5 -1 12 -9 15 -25 9 0 49 26 41 15 -5 19 -2 19
14 0 12 -5 20 -11 18 -19 -4 -21 20 -3 27 23 9 28 1 28 -39 0 -41 5 -43 38
-12 14 13 33 23 41 21 9 -1 19 6 22 17 4 10 15 19 25 19 22 0 35 16 20 25 -5
3 -10 1 -10 -6 0 -10 -3 -10 -12 -1 -9 9 -17 5 -35 -16 -19 -22 -25 -24 -32
-13 -5 8 -16 11 -24 8 -11 -4 -14 -1 -10 9 3 7 0 14 -6 14 -6 0 -8 7 -5 15 4
9 -4 25 -20 40 -26 24 -28 24 -51 9 -21 -13 -25 -14 -25 -2 0 36 51 51 70 21
11 -17 11 -17 6 0 -3 11 0 17 9 17 8 0 14 3 13 8 -5 13 36 52 55 52 15 0 16 3
7 20 -11 20 3 30 15 10 3 -5 12 -7 20 -3 11 4 15 -2 15 -21 0 -15 -5 -25 -12
-24 -8 2 -13 -11 -14 -37 0 -22 1 -34 4 -27 3 9 8 7 16 -9 13 -27 36 -37 36
-15 0 9 4 16 9 16 6 0 9 -12 8 -27 -2 -22 2 -27 16 -25 11 2 17 -4 17 -15 0
-15 2 -16 10 -3 5 8 10 11 10 5 0 -5 4 -3 9 4 6 9 6 22 0 32 -5 10 -9 35 -9
56 0 21 -7 49 -16 61 -8 12 -12 28 -8 35 9 13 -26 -11 -38 -28 -5 -6 -8 -4 -8
4 0 8 -3 12 -6 9 -3 -3 -19 7 -37 23 -20 19 -42 29 -62 29 -34 -1 -75 -30 -75
-55 0 -8 -9 -25 -20 -37 -11 -12 -20 -18 -20 -13 0 4 -9 0 -20 -10 -11 -10
-20 -24 -20 -32 0 -18 -44 -17 -60 2 -17 21 -37 19 -50 -6 -8 -14 -8 -24 -1
-33 8 -10 7 -17 -3 -25 -9 -7 -17 -8 -20 -2 -10 16 -79 -24 -83 -48 -2 -16 2
-20 20 -18 18 2 22 -2 19 -23 -2 -19 0 -22 10 -12 14 14 48 16 48 3 0 -5 3
-17 7 -27 4 -12 3 -15 -5 -10 -7 4 -12 2 -12 -6 0 -8 -5 -6 -11 5 -16 27 -48
21 -55 -10 l-7 -26 -24 27 c-23 27 -24 27 -26 -21 -1 -23 12 -63 21 -63 4 0
16 13 26 28 14 21 25 28 42 24 13 -2 24 -9 24 -14 0 -6 7 -5 15 2 10 8 12 16
6 19 -6 4 -2 12 8 18 17 11 20 8 26 -25 4 -23 3 -38 -4 -40 -16 -5 -13 -29 4
-36 8 -3 15 -13 15 -21 0 -9 -4 -14 -9 -11 -5 3 -22 -8 -39 -25 -18 -19 -32
-26 -37 -20 -3 6 -13 11 -21 11 -17 0 -8 -22 25 -56 11 -12 17 -25 14 -28 -4
-3 -1 -6 5 -6 7 0 12 4 12 8 0 14 38 11 44 -3 3 -10 -6 -16 -29 -21 -19 -3
-35 -10 -35 -16 0 -5 -4 -6 -10 -3 -5 3 -10 1 -10 -5 0 -6 -7 -22 -16 -35 -13
-20 -19 -23 -36 -14 -18 10 -18 9 -8 -11 14 -26 -5 -59 -24 -40 -8 8 -7 13 3
19 10 6 10 13 2 28 -5 11 -7 23 -3 27 3 4 -1 4 -11 1 -22 -9 -35 -62 -38 -160
-2 -64 0 -79 11 -77 8 2 20 11 27 20 13 15 13 15 4 -5 -6 -12 -11 -33 -11 -47
0 -15 -5 -25 -12 -23 -6 1 -14 -6 -16 -15 -2 -10 1 -18 7 -18 6 0 8 6 5 13 -2
7 3 13 14 14 12 1 22 -9 30 -29 10 -27 9 -30 -7 -25 -14 3 -16 -1 -13 -24 3
-17 0 -29 -7 -29 -6 0 -10 -3 -9 -7 0 -5 -2 -16 -6 -25 -5 -10 -5 -26 -2 -35
6 -15 8 -15 16 -3 5 8 12 11 16 7 4 -4 -1 -16 -11 -27 -10 -11 -19 -30 -21
-43 -3 -27 20 -62 35 -52 6 3 11 1 11 -5 0 -18 137 -10 153 8 10 13 8 15 -13
10 -14 -4 -34 -2 -45 2 -18 8 -18 9 5 11 14 1 35 3 48 3 12 1 26 7 31 15 6 9
11 10 15 2 4 -6 10 -9 14 -7 4 2 13 -2 20 -10 11 -12 10 -14 -5 -15 -10 -1
-24 -1 -30 0 -7 1 -13 -3 -13 -9 0 -5 -7 -10 -15 -10 -8 0 -15 -4 -15 -10 0
-5 18 -10 40 -10 22 0 40 -4 40 -8 0 -10 3 -11 105 -17 87 -6 101 -8 128 -20
10 -4 46 -5 80 -1 172 17 201 18 194 10 -5 -5 8 -14 30 -21 l38 -12 -50 6
c-59 8 -105 7 -116 -4 -5 -5 2 -9 14 -10 40 -4 62 -9 84 -21 12 -7 38 -12 57
-12 29 0 36 -4 36 -20 0 -11 -5 -20 -11 -20 -5 0 -7 5 -4 10 4 6 -7 10 -24 10
-17 0 -31 -5 -31 -11 0 -8 -4 -8 -13 -1 -17 15 -129 10 -134 -5 -3 -7 -11 -9
-19 -6 -12 4 -11 8 4 22 18 15 17 16 -32 17 -28 1 -41 -1 -29 -3 17 -3 22 -10
19 -26 -2 -17 -10 -22 -37 -23 -65 -1 -80 -4 -74 -14 10 -16 167 -2 181 16 6
8 17 14 25 14 10 -1 9 -4 -3 -14 -28 -20 -22 -23 35 -19 l52 4 -50 -25 c-41
-20 -45 -25 -25 -26 14 0 43 -3 64 -7 27 -4 37 -3 33 5 -5 6 0 8 12 5 20 -5
55 33 44 50 -3 5 0 7 8 5 8 -3 13 -12 13 -21 -1 -9 2 -14 7 -11 5 3 9 -21 9
-53 0 -43 -6 -66 -21 -88 -12 -16 -19 -22 -15 -13 7 24 -13 33 -32 14 -9 -9
-11 -16 -5 -16 6 0 14 6 16 13 3 6 6 1 6 -13 1 -22 -7 -29 -46 -45 -27 -11
-60 -20 -75 -20 -27 0 -53 -14 -27 -16 8 0 -9 -8 -38 -17 -28 -10 -54 -20 -58
-23 -3 -4 18 -10 47 -14 41 -5 49 -9 33 -15 -18 -8 -17 -9 8 -9 15 -1 27 3 27
7 0 4 15 9 34 10 23 2 36 -2 40 -14 7 -19 -2 -37 -15 -29 -12 8 -100 -5 -95
-14 2 -3 -2 -12 -10 -19 -8 -7 -14 -8 -14 -2 0 5 -9 10 -21 10 -11 0 -17 -4
-14 -10 3 -6 -1 -7 -9 -4 -9 3 -22 -1 -31 -9 -13 -14 -13 -16 4 -22 11 -3 44
-6 73 -6 29 0 69 0 89 0 l36 0 -4 -42 c-4 -41 -22 -65 -34 -46 -4 6 -15 6 -33
-1 -15 -5 -33 -7 -39 -3 -7 4 -8 0 -4 -11 6 -14 2 -16 -27 -11 -25 5 -35 3
-39 -9 -4 -9 -14 -16 -22 -16 -9 0 -14 -4 -10 -9 3 -6 -4 -8 -15 -6 -13 3 -20
-2 -21 -13 0 -14 -2 -13 -9 3 -8 18 -9 17 -9 -8 -1 -30 26 -49 39 -28 5 10 9
9 13 -3 4 -9 2 -16 -4 -16 -6 0 -7 -4 -4 -10 3 -5 -6 -12 -20 -16 -36 -9 -32
-27 5 -19 39 9 38 2 -3 -23 -23 -13 -39 -17 -50 -11 -10 6 -18 5 -22 -1 -5 -8
-11 -7 -21 1 -10 8 -14 8 -14 0 0 -6 -9 -11 -20 -11 -11 0 -20 -5 -20 -11 0
-5 -4 -7 -10 -4 -5 3 -10 1 -10 -4 0 -6 -6 -11 -14 -11 -8 0 -17 -4 -20 -9 -4
-5 4 -7 16 -3 14 3 19 2 14 -6 -4 -7 -1 -12 9 -12 9 0 13 -5 10 -10 -3 -6 -4
-18 -1 -28 6 -19 31 -22 55 -8 9 6 17 3 23 -9 7 -11 13 -13 17 -7 4 7 12 8 21
2 10 -7 11 -10 3 -10 -7 0 -13 -6 -13 -14 0 -7 -10 -20 -23 -29 -12 -8 -19
-18 -15 -22 4 -4 14 -2 23 5 12 10 15 10 15 -1 0 -11 2 -11 10 1 9 13 11 13
20 0 10 -16 15 -17 92 -26 53 -7 61 -22 26 -47 l-23 -16 25 -2 c74 -5 115 3
138 28 12 15 22 22 23 17 0 -5 4 1 9 14 5 12 7 29 4 37 -4 8 -1 15 5 15 6 0
11 -9 11 -20 0 -11 3 -19 8 -19 19 3 23 -2 13 -15 -8 -9 -8 -16 -2 -20 5 -4
17 4 25 16 20 28 20 39 1 32 -8 -4 -15 -1 -15 6 0 6 4 9 9 6 5 -4 12 0 14 6 4
10 6 9 6 -1 1 -11 5 -10 20 3 18 16 19 16 17 -1 0 -10 5 -17 12 -15 8 1 11 -2
7 -8 -5 -8 -11 -7 -22 1 -17 15 -33 -2 -33 -38 0 -18 5 -21 28 -18 15 2 29 5
32 6 5 2 27 4 73 8 19 1 23 26 5 37 -6 4 -8 3 -5 -3 4 -6 -3 -8 -17 -6 -18 4
-22 10 -18 26 5 20 6 20 13 1 7 -17 8 -17 8 -1 1 17 3 17 22 3 24 -17 43 -6
52 30 4 18 5 17 6 -2 1 -21 40 -46 63 -40 7 1 10 1 5 -1 -4 -3 -5 -9 -1 -14 7
-12 -3 -11 -27 1 -15 8 -19 7 -19 -5 0 -8 -4 -15 -10 -15 -5 0 -10 -5 -10 -11
0 -14 105 -6 123 9 7 5 27 13 45 17 17 3 32 12 32 19 0 16 222 15 227 -1 3 -7
16 -8 36 -3 52 12 65 20 71 43 6 25 -2 37 -13 18 -7 -11 -13 -11 -32 0 -13 7
-28 12 -32 11 -4 -1 -17 -4 -28 -5 -11 -2 -24 -9 -29 -16 -4 -8 -16 -11 -29
-6 -33 10 -24 31 11 27 12 -2 32 30 33 54 0 15 -6 26 -17 30 -33 10 -13 54 25
54 10 0 15 4 12 10 -3 6 1 7 10 4 22 -9 57 24 46 44 -10 18 0 30 41 51 26 13
29 40 4 42 -6 1 -18 2 -26 3 -8 0 -14 7 -12 14 1 7 -8 12 -20 12 -17 0 -19 -3
-9 -9 9 -6 4 -10 -17 -13 -31 -4 -35 15 -6 26 9 3 13 10 9 15 -3 6 1 13 8 18
8 4 17 20 21 36 7 29 0 32 -83 27 -47 -3 -36 24 12 28 64 6 40 18 -30 16 -37
-1 -70 2 -74 7 -7 12 -59 -6 -59 -21 0 -6 -17 2 -37 17 l-37 28 48 6 c27 3 70
2 97 -1 49 -6 84 4 73 21 -3 5 -1 16 6 24 9 11 5 16 -22 28 -44 20 -68 18 -68
-5 0 -10 5 -18 11 -18 8 0 8 -4 -1 -15 -15 -18 -60 -16 -53 2 3 7 0 13 -6 13
-6 0 -8 7 -5 15 4 10 0 15 -15 15 l-21 0 21 21 22 22 -32 13 c-40 17 -39 30 2
39 l32 7 -45 15 c-28 8 -62 12 -89 8 -30 -5 -41 -3 -36 4 3 6 -2 11 -12 11
-12 0 -14 3 -6 8 7 4 10 17 7 28 -4 16 -11 20 -31 16 -25 -5 -25 -5 -8 22 18
28 35 34 35 14 0 -9 3 -8 10 2 5 8 13 15 17 15 4 1 18 6 29 13 19 10 22 9 26
-11 5 -30 -2 -58 -13 -51 -5 3 -17 -2 -26 -11 -15 -15 -13 -16 18 -13 26 2 35
8 37 26 4 27 32 29 39 2 4 -14 14 -20 34 -20 37 0 47 18 14 26 -45 11 -14 26
46 22 33 -2 59 -2 59 2 0 15 -121 60 -147 55 -23 -4 -24 -4 -8 4 18 8 17 10
-12 21 -29 11 -33 16 -33 49 0 58 -32 67 -129 40 -34 -10 -45 -9 -51 1 -4 7
-13 9 -19 6 -6 -4 -14 0 -17 8 -3 9 -10 14 -14 11 -10 -6 -68 14 -100 34 l-24
16 39 5 c22 3 49 3 60 1 18 -4 18 -6 -5 -12 -21 -6 -22 -7 -4 -8 11 -1 25 4
31 10 6 6 33 10 62 8 28 -2 51 0 51 6 0 5 5 4 12 -3 19 -19 37 -14 31 8 -5 18
-1 20 33 19 35 0 37 -1 17 -11 -28 -14 -30 -32 -3 -25 11 3 17 1 14 -4 -3 -5
2 -12 10 -15 9 -3 14 -9 12 -13 -6 -10 17 -26 39 -28 52 -4 110 -21 108 -31
-2 -7 4 -12 13 -12 8 0 13 4 10 8 -2 4 10 9 27 9 26 2 28 0 12 -7 -11 -5 -16
-9 -11 -9 5 -1 3 -7 -3 -15 -6 -7 -21 -11 -34 -9 -14 3 -33 -4 -47 -16 -20
-16 -21 -20 -8 -21 9 0 19 6 22 13 3 6 4 3 3 -8 -1 -11 5 -21 15 -23 13 -2 16
1 12 12 -8 22 17 29 57 18 l34 -10 -34 -1 c-23 -1 -32 -4 -25 -11 5 -5 27 -7
48 -3 24 4 33 9 25 14 -23 14 17 22 71 15 34 -5 50 -3 50 4 0 6 -4 9 -9 5 -5
-3 -13 0 -16 6 -4 5 -14 8 -22 5 -8 -3 -11 -1 -8 5 4 5 17 9 28 8 62 -4 108 1
101 13 -5 7 -9 33 -10 57 -2 25 -7 47 -13 49 -6 2 -11 12 -11 22 0 11 -9 24
-20 30 -14 7 -20 7 -20 0 0 -5 -9 -10 -20 -10 -11 0 -20 -5 -20 -11 0 -8 -5
-8 -15 1 -8 7 -15 17 -15 22 0 14 53 57 70 58 13 0 13 -2 1 -9 -19 -12 1 -38
32 -43 12 -2 22 -9 22 -17 0 -22 23 -25 27 -4 2 10 0 34 -5 53 -12 44 -13 148
-3 179 7 20 5 23 -8 18 -9 -4 -16 -1 -16 5 0 6 -11 -1 -25 -16 -13 -14 -31
-26 -39 -26 -13 0 -13 4 0 30 9 16 13 34 9 40 -3 5 0 10 8 10 8 0 20 13 25 30
8 21 16 28 26 24 10 -4 16 -1 16 9 0 8 -5 17 -11 19 -9 3 -9 10 0 26 6 12 8
22 2 22 -5 0 -12 -8 -16 -17 -5 -15 -9 -12 -22 15 -15 31 -15 34 1 50 16 16
17 16 10 0 -3 -10 -2 -18 4 -18 13 0 26 55 17 70 -3 6 -11 8 -16 4 -6 -3 -9
11 -8 35 2 23 7 41 12 41 5 0 6 11 3 25 -4 14 -2 25 3 25 6 0 -1 11 -15 26
-19 18 -34 24 -57 22 -25 -2 -34 2 -44 22 -9 17 -13 20 -13 8 0 -24 -18 -32
-34 -15 -13 12 -13 19 2 48 19 37 58 48 68 17 6 -19 24 -25 24 -7 0 6 7 17 15
25 12 12 15 12 15 2 0 -10 3 -10 9 2 6 8 7 18 5 22 -3 4 2 5 10 2 9 -3 16 -1
16 5 0 6 -5 11 -10 11 -6 0 -8 11 -4 25 5 22 3 25 -19 25 -21 0 -24 4 -20 23
5 22 5 22 -10 2 -8 -11 -19 -17 -23 -13 -4 4 -13 0 -20 -10 -10 -12 -13 -13
-14 -3 0 11 -3 11 -15 1 -9 -7 -18 -11 -21 -8 -6 6 33 32 61 42 22 7 51 57 31
53 -6 -1 -14 -10 -18 -20 -5 -13 -14 -16 -27 -12 -11 3 -22 1 -26 -5 -9 -15
-28 -12 -22 4 8 19 -17 53 -27 38 -4 -7 -18 -12 -32 -12 -30 0 -30 -7 1 -36
31 -29 33 -48 3 -41 -19 5 -26 -1 -43 -36 -15 -32 -26 -43 -47 -45 -23 -3 -28
1 -28 17 0 12 4 21 9 21 5 0 7 10 4 23 -4 17 -2 19 6 7 5 -8 13 -11 17 -7 15
15 -13 29 -34 18 -28 -15 -31 -14 -25 9 7 26 23 36 32 21 11 -18 35 -4 49 29
8 17 20 30 28 30 8 0 14 7 14 15 0 8 7 15 15 15 8 0 15 5 15 11 0 20 54 4 66
-20 l12 -23 8 23 c19 53 -1 84 -44 68 -17 -7 -21 -6 -16 3 5 8 2 9 -9 5 -20
-8 -20 -7 -6 30 8 21 12 24 19 13 8 -12 12 -12 28 5 20 22 36 55 33 69 -1 4 3
14 9 22 7 7 9 22 5 34 -5 17 -15 20 -66 20 -57 0 -59 -1 -59 -26 0 -22 -3 -25
-22 -20 -13 3 -29 6 -37 6 -7 0 -11 6 -8 13 7 19 -52 44 -63 27 -4 -7 -12 -10
-18 -6 -6 3 -14 1 -18 -5 -5 -9 -11 -7 -20 6 -15 20 -18 15 -27 -37 -3 -19 0
-28 9 -28 8 0 14 6 14 13 0 7 3 8 8 2 13 -18 99 -27 106 -11 2 6 8 0 13 -14 8
-19 7 -28 -6 -37 -9 -7 -22 -13 -29 -13 -7 0 -25 -13 -41 -29 -27 -27 -31 -28
-65 -17 l-38 11 31 3 c35 4 39 14 14 40 -48 51 -52 59 -38 79 8 10 15 28 15
40 0 12 6 24 13 26 6 3 -3 8 -21 12 -18 4 -35 12 -38 16 -3 5 -8 8 -12 8 -4
-1 -20 -4 -37 -6z m-780 -103 c3 -5 1 -10 -4 -10 -6 0 -11 5 -11 10 0 6 2 10
4 10 3 0 8 -4 11 -10z m745 -15 c0 -8 -4 -15 -9 -15 -5 0 -12 -13 -16 -30 -4
-16 -11 -30 -16 -30 -6 0 -8 4 -4 9 3 5 1 12 -5 16 -18 11 -11 35 11 35 15 0
19 5 15 15 -3 9 0 15 9 15 8 0 15 -7 15 -15z m330 0 c0 -12 -19 -12 -23 0 -4
9 -1 12 9 8 7 -3 14 -7 14 -8z m-242 -28 c5 -18 7 -40 4 -50 -5 -21 -12 -17
-17 10 -2 10 -4 20 -4 22 -1 2 -10 -6 -21 -19 -12 -13 -19 -29 -16 -36 3 -7
-7 -14 -23 -16 -30 -4 -51 0 -51 10 0 9 47 63 54 63 21 -3 26 2 26 22 0 38 38
33 48 -6z m-628 -53 c0 -16 -18 -18 -40 -4 -13 8 -12 10 3 10 9 0 17 5 17 11
0 5 5 7 10 4 6 -3 10 -13 10 -21z m874 6 c14 -5 26 -15 26 -21 0 -6 -7 -9 -15
-5 -8 3 -15 0 -15 -6 0 -7 -4 -7 -13 0 -8 7 -18 7 -27 2 -13 -8 -12 -11 4 -23
18 -13 17 -15 -14 -25 -28 -10 -31 -10 -20 3 13 16 8 19 -37 17 -21 -1 -21 0
-5 19 20 24 23 24 16 2 -5 -14 -4 -15 4 -4 6 8 8 20 5 27 -3 8 6 14 24 17 15
2 31 5 35 6 4 0 18 -3 32 -9z m-864 -70 c0 -5 -2 -10 -4 -10 -3 0 -8 5 -11 10
-3 6 -1 10 4 10 6 0 11 -4 11 -10z m516 -2 c13 -20 12 -47 -2 -52 -8 -3 -13 8
-16 30 -4 34 4 44 18 22z m199 -18 c6 -20 -9 -50 -25 -50 -15 0 -20 31 -7 50
15 25 24 25 32 0z m122 -34 c-11 -12 -15 -11 -26 6 -7 11 -10 23 -7 26 3 3 6
0 6 -7 0 -8 6 -6 18 5 16 16 17 16 20 1 2 -9 -3 -23 -11 -31z m-1236 -12 c4
-23 2 -34 -12 -42 -14 -9 -18 -7 -22 9 -4 16 -11 19 -29 14 l-23 -6 23 14 c12
7 20 16 16 19 -10 11 7 29 24 26 9 -2 19 -17 23 -34z m99 6 c0 -5 -2 -10 -4
-10 -3 0 -8 5 -11 10 -3 6 -1 10 4 10 6 0 11 -4 11 -10z m942 -36 c-31 -24
-36 -15 -17 30 8 18 9 18 21 1 12 -15 11 -20 -4 -31z m-52 -4 c5 0 12 -9 15
-20 8 -26 15 -25 49 7 16 14 27 20 24 12 -2 -8 -18 -23 -34 -34 -22 -15 -28
-26 -26 -47 2 -16 8 -28 13 -28 5 0 9 -13 9 -30 0 -32 -9 -36 -41 -19 -23 12
-16 31 8 22 13 -5 15 -2 9 23 -8 30 -22 44 -44 44 -10 0 -13 13 -11 43 3 54
13 81 17 50 2 -13 7 -23 12 -23z m-912 -6 c-2 -14 -9 -30 -16 -37 -11 -9 -13
-6 -11 18 3 25 15 44 26 45 2 0 2 -12 1 -26z m854 -26 c-6 -6 -7 0 -4 19 5 21
7 23 10 9 2 -10 0 -22 -6 -28z m-112 6 c0 -8 -6 -14 -14 -14 -18 0 -29 27 -13
33 16 6 27 -1 27 -19z m-278 -26 c-9 -9 -15 -9 -24 1 -9 10 -9 12 -1 7 6 -3
15 -1 18 5 4 5 10 8 13 4 3 -3 0 -11 -6 -17z m-622 -9 c0 -5 -7 -9 -15 -9 -9
0 -12 6 -9 15 6 15 24 11 24 -6z m156 -46 c-2 -27 -8 -59 -13 -73 -6 -14 -7
-30 -2 -36 5 -6 3 -18 -5 -29 -13 -18 -14 -18 -26 4 -15 28 -7 77 23 137 11
24 22 44 24 44 1 0 1 -21 -1 -47z m1344 13 c0 -3 -4 -8 -10 -11 -5 -3 -10 -1
-10 4 0 6 5 11 10 11 6 0 10 -2 10 -4z m-496 -21 c-4 -8 -2 -15 3 -15 5 0 14
-15 20 -34 9 -27 8 -36 -3 -40 -7 -3 -16 -1 -19 5 -4 5 -11 7 -16 4 -5 -4 -9
1 -9 9 0 8 8 19 17 25 17 9 17 10 0 29 -17 19 -17 22 10 31 1 1 0 -6 -3 -14z
m317 -62 c7 -10 9 -15 5 -11 -5 4 -15 3 -22 -3 -9 -8 -11 -5 -7 10 6 25 7 25
24 4z m-716 -3 c-3 -5 -12 -10 -18 -10 -7 0 -6 4 3 10 19 12 23 12 15 0z
m-160 -9 c3 -5 1 -12 -5 -16 -5 -3 -10 1 -10 9 0 18 6 21 15 7z m57 -21 c-14
-15 -22 -18 -27 -10 -8 13 -8 13 20 28 28 15 31 7 7 -18z m588 -11 c-14 -25
-18 -24 -15 4 3 29 3 29 15 22 7 -4 7 -13 0 -26z m45 12 c3 -5 1 -12 -5 -16
-5 -3 -10 1 -10 9 0 18 6 21 15 7z m135 1 c0 -5 -7 -9 -15 -9 -8 0 -12 4 -9 9
3 4 9 8 15 8 5 0 9 -4 9 -8z m60 -22 c13 -9 13 -11 0 -20 -10 -6 -16 -6 -19 3
-2 7 -9 15 -15 19 -7 5 -6 8 4 8 8 0 22 -5 30 -10z m-890 -13 c0 -7 -6 -22
-14 -33 -15 -19 -15 -19 -11 1 2 11 4 22 5 25 1 3 2 8 1 13 0 4 4 7 9 7 6 0
10 -6 10 -13z m60 -20 c0 -5 -5 -5 -12 -1 -8 5 -9 0 -6 -14 4 -12 2 -25 -3
-28 -5 -3 -9 6 -9 20 0 14 -4 28 -10 31 -21 13 -9 23 15 12 14 -7 25 -16 25
-20z m737 -54 c12 -9 12 -16 3 -35 -31 -59 -70 -77 -70 -32 0 14 4 23 9 19 16
-9 23 15 10 32 -11 13 -10 17 6 29 10 8 15 14 11 14 -4 0 -4 6 1 13 5 8 9 6
11 -8 2 -11 10 -25 19 -32z m-729 -20 c0 -16 -5 -31 -12 -35 -7 -5 -6 -8 3 -8
11 0 9 -4 -5 -15 -17 -12 -17 -14 -2 -15 14 0 16 -7 12 -37 -9 -62 -14 -71
-26 -49 -14 26 -12 140 4 165 17 28 25 26 26 -6z m789 13 c19 5 24 4 19 -5 -6
-8 0 -10 18 -5 33 8 34 -9 1 -24 -34 -16 -45 -15 -45 2 0 8 -7 16 -15 20 -8 3
-15 11 -14 18 0 10 2 10 6 1 3 -8 14 -11 30 -7z m-277 -16 c0 -11 -2 -20 -4
-20 -2 0 -6 9 -9 20 -3 11 -1 20 4 20 5 0 9 -9 9 -20z m-50 0 c0 -5 -2 -10 -4
-10 -3 0 -8 5 -11 10 -3 6 -1 10 4 10 6 0 11 -4 11 -10z m-822 -22 c-4 -29
-38 -38 -38 -10 0 19 11 29 33 31 5 1 7 -9 5 -21z m1322 1 c-7 -11 -14 -18
-17 -15 -8 8 5 36 17 36 7 0 7 -6 0 -21z m-389 -12 c-10 -9 -11 -8 -5 6 3 10
9 15 12 12 3 -3 0 -11 -7 -18z m367 -7 c11 -18 10 -20 -12 -20 -14 0 -30 -8
-35 -17 -6 -10 -11 -16 -11 -13 -8 36 -7 47 7 58 23 17 36 15 51 -8z m-303
-17 c1 -11 -4 -20 -11 -20 -7 0 -11 4 -8 9 3 5 1 15 -6 23 -9 10 -7 13 6 11
10 -2 18 -12 19 -23z m-1025 -13 c0 -5 -4 -10 -10 -10 -5 0 -10 5 -10 10 0 6
5 10 10 10 6 0 10 -4 10 -10z m490 -5 c17 -20 4 -50 -22 -52 -13 -1 -24 -7
-26 -13 -8 -22 -21 -8 -18 19 6 51 41 76 66 46z m840 -2 c0 -5 -9 -19 -20 -33
-16 -20 -19 -21 -14 -5 11 31 34 58 34 38z m-1381 -134 c0 -61 3 -115 6 -120
4 -5 4 -9 1 -9 -9 0 -35 64 -38 95 -2 24 -8 31 -29 33 -23 3 -27 9 -33 49 -3
25 -4 49 -1 53 2 4 24 8 49 8 l44 1 1 -110z m51 36 c-11 -49 -16 -59 -21 -42
-3 12 -2 26 3 32 10 11 11 38 0 31 -4 -2 -8 4 -8 14 0 10 4 16 8 14 4 -3 8 2
8 10 0 8 6 13 13 10 10 -4 10 -17 -3 -69z m1120 65 c0 -5 -4 -10 -9 -10 -6 0
-13 5 -16 10 -3 6 1 10 9 10 9 0 16 -4 16 -10z m100 0 c0 -5 -2 -10 -4 -10 -3
0 -8 5 -11 10 -3 6 -1 10 4 10 6 0 11 -4 11 -10z m-20 -35 c9 -11 9 -18 -2
-32 -23 -31 -38 -26 -38 12 0 38 18 47 40 20z m100 -15 c18 -12 2 -12 -25 0
-13 6 -15 9 -5 9 8 0 22 -4 30 -9z m105 0 c3 -5 1 -10 -4 -10 -6 0 -11 5 -11
10 0 6 2 10 4 10 3 0 8 -4 11 -10z m-1626 -19 c8 -14 7 -20 -4 -25 -11 -4 -15
2 -15 19 0 30 6 32 19 6z m1071 5 c0 -3 -4 -8 -10 -11 -5 -3 -10 -1 -10 4 0 6
5 11 10 11 6 0 10 -2 10 -4z m-186 -14 c3 -5 6 -72 7 -150 0 -78 5 -142 10
-142 5 0 9 -5 9 -11 0 -5 -4 -8 -9 -5 -5 4 -12 0 -14 -6 -3 -7 -6 -4 -6 7 -1
17 -3 18 -12 5 -9 -12 -10 -11 -4 5 4 11 9 26 12 33 3 7 -2 12 -12 12 -9 0
-14 -4 -11 -8 2 -4 0 -14 -6 -22 -8 -13 -9 -12 -5 1 3 9 1 21 -5 27 -5 5 -12
66 -14 136 l-5 126 30 0 c16 0 32 -4 35 -8z m306 -18 c0 -8 5 -14 10 -14 6 0
10 4 10 10 0 5 6 7 14 4 15 -6 28 -64 14 -64 -4 0 -8 -8 -8 -19 0 -14 -6 -17
-25 -13 -14 2 -25 9 -26 16 -1 6 -5 0 -10 -14 -6 -18 -7 -14 -2 15 4 22 7 54
7 72 1 30 16 37 16 7z m420 16 c0 -5 6 -7 14 -4 8 3 17 1 21 -5 10 -17 -31
-13 -45 4 -9 10 -9 15 -1 15 6 0 11 -4 11 -10z m-481 -21 c-16 -10 -23 -4 -14
10 3 6 11 8 17 5 6 -4 5 -9 -3 -15z m-86 -9 c3 -13 10 -18 21 -14 19 7 46 -18
46 -44 0 -11 -7 -22 -15 -26 -8 -3 -15 -2 -15 2 0 11 -47 30 -58 23 -6 -4 -16
-19 -21 -35 -6 -15 -17 -26 -23 -24 -7 3 -21 -5 -31 -16 -18 -20 -18 -20 -1
11 10 18 28 43 40 56 15 17 20 32 16 55 -4 27 -1 32 16 32 11 0 22 -8 25 -20z
m-953 -5 c8 5 11 3 8 -6 -8 -24 -34 -22 -35 3 -2 16 0 19 6 9 5 -8 14 -10 21
-6z m1550 -11 c0 -2 -7 -4 -15 -4 -8 0 -15 4 -15 10 0 5 7 7 15 4 8 -4 15 -8
15 -10z m-125 -4 c3 -5 1 -10 -4 -10 -6 0 -11 5 -11 10 0 6 2 10 4 10 3 0 8
-4 11 -10z m45 -25 c-9 -11 -9 -15 -1 -15 8 0 6 -6 -4 -16 -18 -18 -20 -17
-29 11 -4 15 0 23 17 31 28 13 34 9 17 -11z m-940 -15 c-9 -16 -13 -18 -24 -8
-15 14 -4 28 22 28 10 0 10 -5 2 -20z m46 -5 c9 -37 -2 -41 -14 -6 -7 18 -7
31 -2 31 5 0 12 -11 16 -25z m288 10 c-6 -16 -24 -21 -24 -7 0 11 11 22 21 22
5 0 6 -7 3 -15z m-904 1 c0 -2 -7 -9 -15 -16 -13 -11 -14 -10 -9 4 5 14 24 23
24 12z m760 -27 c0 -17 -4 -28 -10 -24 -5 3 -10 17 -10 31 0 13 5 24 10 24 6
0 10 -14 10 -31z m525 -57 c5 -32 3 -47 -6 -53 -11 -6 -10 -9 2 -14 19 -7 21
-35 3 -35 -11 0 -30 46 -34 82 -1 4 -5 22 -10 39 -12 39 -5 52 20 37 11 -7 21
-29 25 -56z m-1118 26 c-3 -7 -5 -2 -5 12 0 14 2 19 5 13 2 -7 2 -19 0 -25z
m986 -16 c-6 -24 -34 -27 -39 -4 -1 7 0 8 3 2 2 -5 9 -10 14 -10 6 0 7 5 4 10
-4 6 -4 18 -1 27 10 24 26 2 19 -25z m306 9 c-15 -5 -22 6 -14 19 6 9 10 9 16
-1 5 -8 4 -15 -2 -18z m-403 -18 c-11 -11 -19 6 -11 24 8 17 8 17 12 0 3 -10
2 -21 -1 -24z m494 17 c0 -5 -8 -10 -17 -10 -15 0 -16 2 -3 10 19 12 20 12 20
0z m-1008 -32 c-7 -7 -12 -8 -12 -2 0 14 12 26 19 19 2 -3 -1 -11 -7 -17z
m918 6 c0 -8 -5 -12 -10 -9 -6 4 -8 11 -5 16 9 14 15 11 15 -7z m-460 -33 c0
-13 -9 -21 -30 -26 -16 -4 -37 -16 -45 -28 -12 -17 -15 -18 -15 -5 0 9 18 27
40 39 21 12 37 26 34 31 -3 4 0 8 5 8 6 0 11 -9 11 -19z m64 4 c3 -8 1 -15 -4
-15 -6 0 -10 7 -10 15 0 8 2 15 4 15 2 0 6 -7 10 -15z m-947 -27 c-3 -8 -6 -5
-6 6 -1 11 2 17 5 13 3 -3 4 -12 1 -19z m50 0 c-3 -8 -6 -5 -6 6 -1 11 2 17 5
13 3 -3 4 -12 1 -19z m500 -8 c2 -11 -2 -20 -7 -20 -6 0 -10 12 -10 27 0 29
12 24 17 -7z m754 11 c-7 -5 -11 -13 -8 -18 3 -5 -3 -14 -14 -21 -16 -10 -19
-9 -19 4 0 16 41 56 50 48 2 -3 -2 -9 -9 -13z m-844 -27 c-5 -30 -3 -37 13
-41 30 -8 24 -23 -10 -23 -32 0 -36 9 -24 69 9 44 28 40 21 -5z m53 15 c0 -5
-4 -9 -8 -9 -5 0 -9 7 -9 15 0 8 4 12 9 9 4 -3 8 -9 8 -15z m726 -3 c7 -28 -1
-46 -19 -45 -9 0 -9 2 0 5 8 4 9 14 3 35 -5 17 -5 29 1 29 5 0 11 -11 15 -24z
m-896 -16 c0 -14 -4 -31 -8 -37 -11 -17 -68 -28 -76 -14 -4 6 0 12 8 12 9 1
22 2 28 3 7 0 12 14 12 31 -1 24 3 31 17 31 14 0 19 -8 19 -26z m1137 8 c-3
-8 -6 -5 -6 6 -1 11 2 17 5 13 3 -3 4 -12 1 -19z m-427 2 c-19 -13 -30 -13
-30 0 0 6 10 10 23 10 18 0 19 -2 7 -10z m385 -20 c5 1 11 -2 12 -7 2 -4 -17
-9 -41 -10 -36 -1 -44 2 -39 13 3 8 12 13 20 10 8 -3 12 -2 8 3 -3 5 1 11 7
14 7 2 15 -2 18 -10 3 -8 10 -14 15 -13z m-1388 -2 c-3 -8 -6 -5 -6 6 -1 11 2
17 5 13 3 -3 4 -12 1 -19z m373 2 c0 -11 -4 -20 -9 -20 -6 0 -9 9 -8 20 1 11
5 20 9 20 4 0 8 -9 8 -20z m351 -23 c-8 -8 -11 -3 -11 19 1 25 2 27 11 11 8
-14 8 -22 0 -30z m-531 11 c0 -20 -6 -23 -50 -26 -45 -3 -50 -1 -50 19 0 19 5
21 44 18 24 -2 42 -1 39 4 -2 4 1 7 6 7 6 0 11 -10 11 -22z m684 3 c3 -5 15
-7 26 -4 13 3 20 0 20 -9 0 -10 -11 -13 -39 -10 -29 3 -38 8 -34 18 6 16 19
18 27 5z m173 3 c-3 -3 -12 -4 -19 -1 -8 3 -5 6 6 6 11 1 17 -2 13 -5z m401
-24 c-1 -26 -4 -29 -21 -24 -13 4 -17 2 -13 -5 4 -6 2 -11 -3 -11 -17 0 -13
17 12 44 12 13 23 24 24 25 1 1 1 -13 1 -29z m-851 14 c-3 -3 -12 -4 -19 -1
-8 3 -5 6 6 6 11 1 17 -2 13 -5z m633 -24 c-14 -10 -26 -17 -28 -15 -7 7 23
34 38 34 10 1 6 -6 -10 -19z m63 -1 c4 -3 1 -11 -7 -18 -11 -9 -16 -9 -22 0
-5 8 -3 9 6 4 9 -6 10 -2 5 16 -4 14 -4 20 1 14 5 -5 13 -12 17 -16z m-819
-11 c1 -7 5 -18 9 -24 4 -7 -1 -14 -13 -17 -11 -3 -20 -1 -20 4 0 6 -8 5 -20
-1 -16 -9 -18 -8 -14 5 4 8 15 15 25 15 13 0 19 7 19 22 0 22 10 20 14 -4z
m126 12 c0 -5 -16 -10 -35 -10 -19 0 -35 4 -35 8 0 4 16 9 35 10 19 2 35 -2
35 -8z m137 -6 c-3 -3 -12 -4 -19 -1 -8 3 -5 6 6 6 11 1 17 -2 13 -5z m391
-11 c-2 -9 -10 -18 -18 -20 -13 -4 -13 -3 0 6 13 10 13 12 0 21 -13 8 -12 10
3 10 12 0 17 -6 15 -17z m32 2 c-7 -9 -15 -13 -17 -11 -7 7 7 26 19 26 6 0 6
-6 -2 -15z m-776 -8 c3 4 6 -2 6 -12 0 -14 -3 -15 -14 -6 -8 6 -18 11 -22 10
-5 -1 -18 -1 -29 0 -16 1 -17 3 -6 10 8 5 24 6 37 1 12 -5 25 -6 28 -3z m539
-1 c19 -15 22 -26 6 -26 -6 0 -17 -6 -24 -14 -12 -12 -12 -15 0 -20 25 -9 18
-38 -7 -34 -24 3 -30 22 -16 51 6 12 5 17 -7 17 -11 0 -15 -11 -15 -45 0 -42
-2 -45 -26 -45 -20 0 -25 4 -20 16 3 9 7 23 7 32 1 9 5 4 9 -13 6 -25 8 -20 9
27 1 54 2 57 29 61 15 2 29 5 32 5 3 1 13 -5 23 -12z m-656 -2 c-3 -3 -22 -6
-42 -6 -20 0 -39 3 -42 6 -4 3 15 6 42 6 27 0 46 -3 42 -6z m330 0 c-3 -3 -12
-4 -19 -1 -8 3 -5 6 6 6 11 1 17 -2 13 -5z m-19 -52 c11 -27 11 -26 6 6 -5 29
-4 32 18 29 20 -3 23 -10 26 -50 l3 -46 -38 3 c-37 4 -38 5 -36 43 1 21 0 32
-3 26 -9 -20 -24 -15 -24 6 0 28 34 16 48 -17z m782 18 c0 -5 -4 -10 -10 -10
-5 0 -10 5 -10 10 0 6 5 10 10 10 6 0 10 -4 10 -10z m-1570 -10 c0 -5 -4 -10
-10 -10 -5 0 -10 5 -10 10 0 6 5 10 10 10 6 0 10 -4 10 -10z m457 -44 c-2 -10
17 -14 90 -19 18 -1 28 -6 23 -11 -13 -13 -107 4 -124 23 -14 15 -14 18 -2 18
8 0 14 -5 13 -11z m280 8 c-3 -3 -12 -4 -19 -1 -8 3 -5 6 6 6 11 1 17 -2 13
-5z m-324 -11 c-7 -2 -19 -2 -25 0 -7 3 -2 5 12 5 14 0 19 -2 13 -5z m-50 -10
c-7 -2 -19 -2 -25 0 -7 3 -2 5 12 5 14 0 19 -2 13 -5z m283 -18 c16 -12 16
-14 3 -15 -9 0 -22 7 -29 15 -16 19 0 19 26 0z m87 1 c9 0 17 -4 17 -8 0 -12
-32 -9 -65 8 l-30 14 30 -6 c17 -4 38 -7 48 -8z m117 -20 c0 -2 -7 -6 -15 -10
-8 -3 -15 -1 -15 4 0 6 7 10 15 10 8 0 15 -2 15 -4z m-33 -42 c-3 -3 -12 -4
-19 -1 -8 3 -5 6 6 6 11 1 17 -2 13 -5z m368 -55 c4 -5 -1 -19 -11 -30 -20
-23 -36 -25 -28 -4 10 26 -24 17 -57 -14 -17 -17 -28 -34 -26 -38 9 -14 63 -9
83 7 10 8 4 -4 -15 -27 -35 -46 -48 -56 -31 -24 14 27 -3 34 -27 11 -21 -19
-21 -18 -27 12 -3 17 -6 45 -6 63 0 33 0 33 63 43 34 5 65 10 69 11 4 0 10 -4
13 -10z m-215 -10 c0 -5 14 -9 30 -9 23 0 30 -5 30 -19 0 -23 -31 -35 -61 -26
-18 6 -20 4 -14 -17 8 -23 8 -23 -14 -4 -13 12 -17 22 -11 26 6 4 3 13 -10 25
-28 25 -25 31 15 32 19 1 35 -3 35 -8z m240 -49 c-18 -33 -23 -16 -8 26 10 30
14 33 16 16 2 -11 -2 -31 -8 -42z m305 30 c3 -5 -3 -10 -15 -10 -12 0 -18 5
-15 10 3 6 10 10 15 10 5 0 12 -4 15 -10z m-610 -54 c0 -15 9 -34 18 -41 14
-10 15 -14 5 -18 -7 -2 -9 -8 -5 -13 4 -4 16 -3 25 2 13 8 21 7 33 -5 21 -21
32 -42 22 -40 -17 3 -53 -14 -47 -22 9 -14 -6 -10 -22 6 -9 8 -12 15 -7 16 4
0 -2 4 -14 9 -19 8 -22 15 -18 45 4 34 -8 49 -18 23 -3 -7 -6 6 -6 30 -1 35 2
43 16 40 10 -2 17 -14 18 -32z m120 -13 c-1 -16 3 -39 7 -52 l8 -24 -25 24
c-13 13 -25 30 -25 37 0 7 -4 10 -10 7 -5 -3 -10 -2 -10 4 0 5 12 14 28 19 15
6 27 11 27 11 1 1 0 -11 0 -26z m171 -4 c4 -7 1 -10 -7 -7 -8 3 -23 -2 -34
-11 -20 -16 -20 -16 -1 7 21 25 32 27 42 11z m117 -23 c4 -11 -2 -14 -26 -12
-45 4 -47 5 -47 16 0 16 67 12 73 -4z m-433 -121 c0 -7 12 -16 28 -18 19 -3
15 -4 -15 -6 -43 -1 -67 14 -39 25 9 3 13 11 9 17 -3 6 -1 7 5 3 7 -4 12 -13
12 -21z m43 18 c-7 -2 -19 -2 -25 0 -7 3 -2 5 12 5 14 0 19 -2 13 -5z m97 3
c0 -2 -8 -10 -17 -17 -16 -13 -17 -12 -4 4 13 16 21 21 21 13z m103 -33 c-7
-2 -19 -2 -25 0 -7 3 -2 5 12 5 14 0 19 -2 13 -5z m-126 -54 c36 7 41 6 40
-10 -1 -10 -6 -17 -12 -16 -5 1 -9 -4 -7 -10 1 -7 -5 -13 -13 -13 -23 0 -18
-18 7 -26 l23 -7 -25 -9 c-13 -5 -30 -6 -37 -4 -8 3 -12 -2 -10 -15 2 -17 -4
-22 -30 -24 -29 -2 -31 -1 -20 17 10 15 9 21 -3 29 -13 9 -13 10 0 8 45 -5 55
23 20 54 -24 20 -18 42 8 28 10 -5 36 -6 59 -2z m-20 -169 c-1 -16 -9 -20 -34
-20 -18 0 -33 2 -33 4 0 19 15 31 39 33 24 2 29 -2 28 -17z m43 -57 c0 -22
-23 -40 -44 -36 -15 3 -32 -1 -41 -11 -18 -18 -35 -21 -35 -6 0 6 5 10 10 10
6 0 10 4 10 9 0 4 -11 6 -25 3 -29 -5 -36 23 -7 31 20 6 132 5 132 0z m65 -3
c3 -5 1 -10 -4 -10 -6 0 -11 5 -11 10 0 6 2 10 4 10 3 0 8 -4 11 -10z m72 -12
c-3 -8 -6 -5 -6 6 -1 11 2 17 5 13 3 -3 4 -12 1 -19z m-97 -28 c0 -5 -5 -10
-11 -10 -5 0 -7 5 -4 10 3 6 8 10 11 10 2 0 4 -4 4 -10z m-103 -22 c-3 -8 -6
-5 -6 6 -1 11 2 17 5 13 3 -3 4 -12 1 -19z m-247 -66 c0 -5 -7 -9 -15 -9 -8 0
-12 4 -9 9 3 4 9 8 15 8 5 0 9 -4 9 -8z m63 -50 c-15 -2 -23 -10 -23 -22 0
-14 5 -18 18 -14 15 5 15 4 -1 -6 -10 -7 -19 -10 -20 -8 -1 1 -8 13 -14 25
-24 42 -17 53 25 40 30 -10 33 -13 15 -15z m166 4 c18 -19 19 -25 7 -29 -8 -3
-22 3 -32 14 -9 10 -29 20 -43 20 -25 1 -25 2 4 9 17 4 33 8 36 9 3 0 16 -10
28 -23z m-329 -13 c8 -16 16 -31 18 -35 1 -4 -4 -5 -13 -2 -9 4 -14 13 -11 20
3 8 -1 14 -9 14 -8 0 -15 7 -15 15 0 24 15 17 30 -12z m270 -17 c0 -2 -7 -7
-16 -10 -8 -3 -12 -2 -9 4 6 10 25 14 25 6z m-207 -33 c-7 -2 -19 -2 -25 0 -7
3 -2 5 12 5 14 0 19 -2 13 -5z m-2 -56 c-6 -8 -8 -17 -4 -20 3 -4 1 -7 -5 -7
-15 0 -15 13 0 28 16 16 23 15 9 -1z m116 -53 c-3 -3 -12 -4 -19 -1 -8 3 -5 6
6 6 11 1 17 -2 13 -5z m-397 -30 c0 -8 -4 -12 -10 -9 -5 3 -10 10 -10 16 0 5
5 9 10 9 6 0 10 -7 10 -16z m60 12 c0 -3 -4 -8 -10 -11 -5 -3 -10 -1 -10 4 0
6 5 11 10 11 6 0 10 -2 10 -4z m923 -63 c-7 -2 -19 -2 -25 0 -7 3 -2 5 12 5
14 0 19 -2 13 -5z m-763 -18 c0 -8 -4 -15 -10 -15 -5 0 -7 7 -4 15 4 8 8 15
10 15 2 0 4 -7 4 -15z m-72 -20 c-3 -3 -9 2 -12 12 -6 14 -5 15 5 6 7 -7 10
-15 7 -18z m42 9 c0 -8 -5 -12 -10 -9 -6 4 -8 11 -5 16 9 14 15 11 15 -7z
m195 -44 c-3 -6 -15 -5 -30 2 -14 6 -23 13 -21 15 2 3 14 -1 26 -7 20 -11 21
-10 15 12 -5 20 -4 20 5 5 6 -9 8 -21 5 -27z"/>
<path d="M1311 1744 c0 -11 3 -14 6 -6 3 7 2 16 -1 19 -3 4 -6 -2 -5 -13z"/>
<path d="M1159 2648 c-1 -5 -2 -11 -3 -15 -1 -5 -5 -14 -9 -20 -6 -9 -2 -13
12 -13 12 0 21 3 20 8 -1 14 -18 47 -20 40z"/>
<path d="M1186 2618 c11 -31 11 -139 1 -129 -5 5 -20 -2 -35 -16 l-26 -24 21
-21 c21 -20 23 -20 47 -5 14 10 39 17 56 17 20 0 30 5 30 15 0 26 19 16 34
-17 l13 -33 -2 47 c-1 26 -4 50 -8 54 -3 3 -23 -7 -43 -22 -30 -23 -36 -25
-31 -11 4 10 4 30 1 43 -6 24 -7 24 -25 8 -11 -9 -19 -12 -19 -6 0 6 5 14 11
17 15 10 -5 105 -22 105 -6 0 -7 -9 -3 -22z"/>
<path d="M1044 2596 c-17 -9 -19 -16 -12 -37 7 -20 15 -26 38 -26 17 0 30 5
31 11 0 6 4 2 9 -9 7 -15 8 -11 7 19 -1 22 -8 41 -15 44 -6 2 -12 -2 -12 -9 0
-9 -4 -8 -12 3 -10 12 -17 13 -34 4z"/>
<path d="M1220 2601 c0 -5 5 -13 10 -16 6 -3 10 -2 10 4 0 5 -4 13 -10 16 -5
3 -10 2 -10 -4z"/>
<path d="M1264 2582 c-5 -4 -10 -17 -10 -28 0 -21 1 -21 22 -5 29 22 18 54
-12 33z"/>
<path d="M1137 2563 c-4 -3 -7 -19 -7 -35 0 -17 -5 -27 -12 -25 -7 1 -13 -4
-13 -10 0 -7 3 -13 8 -13 51 0 52 0 37 10 -10 6 -11 10 -2 10 7 0 12 12 11 28
0 24 -1 25 -10 7 -8 -17 -9 -16 -6 8 4 29 4 31 -6 20z"/>
<path d="M1406 2544 c-3 -8 -11 -12 -17 -8 -7 4 -9 -1 -7 -12 2 -11 10 -18 16
-16 7 1 12 -3 12 -9 0 -8 5 -8 15 1 19 16 19 27 1 45 -12 12 -15 12 -20 -1z"/>
<path d="M1066 2460 c-17 -6 -18 -7 -3 -13 9 -3 19 -2 23 4 9 15 2 18 -20 9z"/>
<path d="M1028 2346 c-20 -15 -24 -42 -7 -48 8 -3 9 -18 4 -46 -4 -23 -11 -40
-16 -36 -15 9 -10 -12 5 -25 20 -17 35 13 43 88 3 33 10 58 14 55 5 -3 9 -1 9
4 0 6 -7 13 -16 16 -19 7 -15 8 -36 -8z"/>
<path d="M988 2280 c-15 -4 -30 -5 -34 -1 -4 3 -1 -4 5 -17 12 -22 14 -22 30
-8 10 9 21 13 24 9 4 -3 7 1 7 10 0 10 -1 17 -2 16 -2 0 -15 -4 -30 -9z"/>
<path d="M920 2269 c0 -6 -7 -9 -15 -6 -8 4 -23 -5 -35 -21 -20 -25 -20 -27
-3 -33 10 -4 14 -8 9 -8 -6 -1 -1 -7 10 -15 16 -13 21 -12 36 1 9 8 21 12 26
9 17 -10 24 28 8 40 -9 6 -14 13 -12 15 2 2 -2 10 -10 17 -10 9 -14 9 -14 1z"/>
<path d="M550 2120 c0 -5 5 -10 10 -10 6 0 10 5 10 10 0 6 -4 10 -10 10 -5 0
-10 -4 -10 -10z"/>
<path d="M444 2081 c3 -5 -1 -11 -9 -15 -17 -6 -20 -51 -5 -61 6 -3 10 1 10 9
0 9 9 25 20 36 22 22 19 40 -6 40 -8 0 -13 -4 -10 -9z"/>
<path d="M820 2009 c0 -5 5 -7 10 -4 6 3 10 8 10 11 0 2 -4 4 -10 4 -5 0 -10
-5 -10 -11z"/>
<path d="M1505 1830 c-3 -5 1 -10 9 -10 9 0 16 5 16 10 0 6 -4 10 -9 10 -6 0
-13 -4 -16 -10z"/>
<path d="M1508 1283 c6 -2 18 -2 25 0 6 3 1 5 -13 5 -14 0 -19 -2 -12 -5z"/>
<path d="M629 1269 c-10 -6 -4 -9 19 -9 17 0 32 2 32 4 0 9 -39 13 -51 5z"/>
<path d="M1055 1240 c-8 -13 25 -13 45 0 12 8 9 10 -12 10 -15 0 -30 -4 -33
-10z"/>
<path d="M1766 1201 c-2 -3 9 -7 25 -8 15 -1 31 1 33 6 3 4 -8 8 -25 8 -16 0
-31 -3 -33 -6z"/>
<path d="M1875 1010 c3 -5 12 -7 19 -4 8 3 17 1 21 -5 3 -6 20 -11 36 -11 17
0 28 -4 25 -9 -4 -5 4 -7 16 -3 15 4 19 2 13 -7 -5 -10 -2 -11 14 -6 13 4 36
1 52 -5 16 -7 32 -10 35 -7 11 11 -65 40 -141 53 -97 16 -98 16 -90 4z"/>
<path d="M993 973 c-7 -2 -13 -12 -13 -20 0 -11 -7 -14 -25 -11 -14 3 -33 -1
-42 -9 -16 -12 -13 -13 25 -10 47 4 60 -4 37 -26 -13 -13 -12 -15 5 -20 11 -3
18 -1 15 3 -13 21 8 35 56 36 53 1 97 24 46 24 -29 0 -38 19 -9 21 10 0 12 2
4 6 -7 3 -23 -2 -37 -11 -22 -15 -24 -14 -30 4 -6 20 -11 22 -32 13z m17 -23
c0 -5 -2 -10 -4 -10 -3 0 -8 5 -11 10 -3 6 -1 10 4 10 6 0 11 -4 11 -10z"/>
<path d="M1226 965 c-3 -8 -1 -15 4 -15 6 0 10 7 10 15 0 8 -2 15 -4 15 -2 0
-6 -7 -10 -15z"/>
<path d="M1765 970 c4 -6 11 -8 16 -5 14 9 11 15 -7 15 -8 0 -12 -5 -9 -10z"/>
<path d="M1941 944 c0 -11 3 -14 6 -6 3 7 2 16 -1 19 -3 4 -6 -2 -5 -13z"/>
<path d="M2134 949 c-3 -5 6 -9 20 -9 31 0 34 6 6 13 -11 3 -23 1 -26 -4z"/>
<path d="M842 920 c0 -14 2 -19 5 -12 2 6 2 18 0 25 -3 6 -5 1 -5 -13z"/>
<path d="M1838 933 c-33 -9 -18 -24 20 -21 20 2 37 8 37 13 0 11 -31 16 -57 8z"/>
<path d="M2040 911 c0 -13 30 -18 70 -11 33 5 34 6 10 13 -35 10 -80 9 -80 -2z"/>
<path d="M1021 874 c14 -17 25 -17 64 0 30 14 30 14 -23 14 -44 0 -51 -2 -41
-14z"/>
<path d="M903 873 c9 -2 23 -2 30 0 6 3 -1 5 -18 5 -16 0 -22 -2 -12 -5z"/>
<path d="M1823 843 c9 -2 23 -2 30 0 6 3 -1 5 -18 5 -16 0 -22 -2 -12 -5z"/>
<path d="M1095 610 c-3 -5 -1 -10 4 -10 6 0 11 5 11 10 0 6 -2 10 -4 10 -3 0
-8 -4 -11 -10z"/>
<path d="M978 593 c7 -3 16 -2 19 1 4 3 -2 6 -13 5 -11 0 -14 -3 -6 -6z"/>
<path d="M938 573 c7 -3 16 -2 19 1 4 3 -2 6 -13 5 -11 0 -14 -3 -6 -6z"/>
<path d="M850 497 c0 -16 3 -18 9 -8 5 8 11 9 15 3 3 -6 15 -8 26 -5 11 3 20
0 20 -6 0 -6 5 -11 10 -11 14 0 12 30 -2 34 -7 3 -28 7 -45 10 -29 5 -33 3
-33 -17z"/>
<path d="M625 490 c-3 -5 3 -10 15 -10 12 0 18 5 15 10 -3 6 -10 10 -15 10 -5
0 -12 -4 -15 -10z"/>
<path d="M743 478 c-6 -11 39 -9 57 2 11 7 6 9 -18 7 -19 -1 -36 -5 -39 -9z"/>
<path d="M1930 350 c0 -5 5 -10 11 -10 5 0 7 5 4 10 -3 6 -8 10 -11 10 -2 0
-4 -4 -4 -10z"/>
<path d="M705 310 c-3 -5 -2 -10 4 -10 5 0 13 5 16 10 3 6 2 10 -4 10 -5 0
-13 -4 -16 -10z"/>
<path d="M630 300 c0 -5 5 -10 11 -10 5 0 7 5 4 10 -3 6 -8 10 -11 10 -2 0 -4
-4 -4 -10z"/>
<path d="M740 275 c0 -8 9 -15 20 -15 11 0 20 2 20 5 0 2 -9 9 -20 15 -16 9
-20 8 -20 -5z"/>
<path d="M815 200 c-8 -13 3 -30 19 -30 18 0 52 27 44 36 -4 4 -14 1 -23 -6
-10 -8 -15 -9 -15 -1 0 14 -17 15 -25 1z"/>
<path d="M1831 144 c0 -11 3 -14 6 -6 3 7 2 16 -1 19 -3 4 -6 -2 -5 -13z"/>
<path d="M1700 141 c0 -5 7 -11 15 -15 9 -3 15 0 15 9 0 8 -7 15 -15 15 -8 0
-15 -4 -15 -9z"/>
<path d="M1955 130 c-3 -5 1 -10 10 -10 9 0 13 5 10 10 -3 6 -8 10 -10 10 -2
0 -7 -4 -10 -10z"/>
</g>
</svg>
